<?xml version="1.0" encoding="utf-8"?>
<!-- Generator: Adobe Illustrator 25.3.1, SVG Export Plug-In . SVG Version: 6.00 Build 0)  -->
<svg version="1.1" id="Layer_1" xmlns="http://www.w3.org/2000/svg" xmlns:xlink="http://www.w3.org/1999/xlink" x="0px" y="0px"
	 viewBox="0 0 525 525" style="enable-background:new 0 0 525 525;" xml:space="preserve">
<style type="text/css">
	.st0{fill:#1E12FF;}
</style>
<g>
	<g>
		<g>
			<path class="st0" d="M246.8,487.4V370.3H72.5l-2.1-0.8c-1.3-0.5-32.1-11.6-43.1-37.5c-5-11.6-5.2-23.8-1-36.4
				c-9.7-13.7-29.7-46.8-20.9-76c4.4-15,15.7-26.4,32.9-33.6c1.8-11.4,7.3-31,22.2-42.6c7.3-5.9,16.2-9,26.1-9.3
				c12.3-27.1,42.8-62.8,92.4-51.9c11.7-15.2,42.5-43.9,102.3-36.7c55.8,6.7,77.8,26.9,86.1,38.8c34.4,1.6,91.3,20.2,108.8,81.4
				c27.1,15.2,65.8,56.3,47.2,123.3c-9.1,33.3-24.3,54.8-44.9,63.8c-12,5.4-23.5,5.2-31.8,3.6c-3.4,5.7-9.1,12.4-18,17.8
				c-17,10.3-39.9,12.1-68.1,5.4L246.8,487.4z M76.9,345h194.9v83.5l81.7-77.5l7,1.8c24,6.7,43.3,6.5,55.3-0.8
				c9.4-5.7,11.5-14,11.5-14l3.4-16l14.6,7.2c0.3,0.3,11.2,5.2,23.2-0.3c13-5.9,23.5-22.2,30.3-47.3c19-68.5-36.8-95.6-39.1-96.6
				l-5.5-2.6l-1.3-5.9c-16.2-69.3-89.8-68-92.9-68l-10.4,0.3l-2.1-9c-1-2.3-13-23.5-69.4-30.2c-61.3-7.2-82.5,31.8-82.7,32l-5,9.6
				l-10.2-3.4c-53-17.1-72.8,40.1-73.6,42.6l-3.4,10.1l-10.7-1.8c-6.8-1-12.3,0-16.7,3.4c-10.2,8-13.6,26.9-13.8,33.1l-0.5,8.5
				l-8.1,2.6c-13.6,4.4-21.4,10.9-24.3,19.6C23.1,245.8,42.7,276,50,285l5,5.9l-3.1,7c-3.9,8.8-4.4,16.5-1.6,23.5
				C56,334.9,71.7,342.7,76.9,345z M347.7,99.8L347.7,99.8L347.7,99.8z"/>
		</g>
	</g>
	<g>
		<g>
			<path class="st0" d="M134,263.8c-54.8-23.8-57.7-88.6-51.4-119.6l24.8,4.9l-12.5-2.3l12.5,2.3c-0.5,2.8-13,70.3,36.8,91.7
				L134,263.8z"/>
		</g>
	</g>
	<g>
		<g>
			<path class="st0" d="M135.1,315.8c-7.3,0.8-13.8-4.7-14.1-11.9c-1.6-33.6,7-58.1,25.6-72.6c21.9-17.3,51.7-15.5,68.9-12.1
				c7.6,1.3,12.3,9,9.7,16.5l0,0c-2.1,5.9-8.1,9.3-14.4,8.3c-12.8-2.3-34.2-4.1-48.3,7.2c-11.7,9.3-17.2,26.9-15.9,51.9
				C146.6,309.3,141.6,315,135.1,315.8L135.1,315.8z"/>
		</g>
	</g>
	<g>
		<g>
			<path class="st0" d="M336.8,290.7c-7.8-43.7-0.5-77.3,21.9-100c38.4-39,105.7-29.7,108.5-29.2l-3.7,24.8c-0.5,0-57.7-7.8-86.9,22
				c-16.4,16.8-21.4,42.9-15.1,78L336.8,290.7z"/>
		</g>
	</g>
	<g>
		<g>
			<path class="st0" d="M342,303.9c-1,0-2.1,0-3.1,0c-20.1-1-38.1-11.6-52.7-30.8c-4.7-6.2-2.9-14.7,3.7-18.3l0,0
				c5.5-3.1,12.5-1.8,16.4,3.4c9.9,13.4,21.1,20.4,33.7,20.9c23,1,44.9-16.8,56.9-29.2c4.7-4.7,12-4.9,17.2-0.8l0,0
				c5.7,4.7,6,13.2,1,18.3C399.4,283,373,303.9,342,303.9z"/>
		</g>
	</g>
	<g>
		<g>
			<path class="st0" d="M305.2,163.8L305.2,163.8c-7.6-1.6-12-8.8-9.9-15.8C312.8,87.6,356.9,84,359,83.7l0.8,12.4l1,12.4
				c-1.3,0-28.7,3.4-41.2,46.3C317.7,161,311.5,164.9,305.2,163.8z"/>
		</g>
	</g>
	<g>
		<g>
			<path class="st0" d="M253.5,181.9c-16.7-59.4-71.8-73.6-72.3-73.6l6-24.3c3.1,0.8,70.2,17.8,90.8,91.2c2.1,7.2-2.6,14.5-9.9,15.8
				l0,0C261.6,192.3,255.4,188.4,253.5,181.9z"/>
		</g>
	</g>
	<g>
		<g>
			<path class="st0" d="M271.5,360.2l-24.8-5.7l12.3,2.8l-12.3-2.8c1.6-6.7,3.1-26.6-7-37.2c-6.3-6.7-17-9.6-31.3-8.8
				c-6.5,0.3-12-4.4-13-10.6l0,0c-1.3-7.5,4.4-14.2,12-14.5c22.4-1,39.4,4.4,51.1,16.8C279.9,323,272.1,358.9,271.5,360.2z"/>
		</g>
	</g>
	<g>
		<g>
			<path class="st0" d="M73.5,321c-27.1-4.7-41.2-17.8-42-18.6L49,284.3c0.5,0.5,9.7,8.8,28.4,11.9c6.3,1,11,6.5,10.7,12.9l0,0
				C87.8,316.6,81.1,322.2,73.5,321z"/>
		</g>
	</g>
</g>
</svg>
