<?xml version="1.0" encoding="utf-8"?>
<!-- Generator: Adobe Illustrator 25.3.1, SVG Export Plug-In . SVG Version: 6.00 Build 0)  -->
<svg version="1.1" id="Layer_1" xmlns="http://www.w3.org/2000/svg" xmlns:xlink="http://www.w3.org/1999/xlink" x="0px" y="0px"
	 viewBox="0 0 525 525" style="enable-background:new 0 0 525 525;" xml:space="preserve">
<style type="text/css">
	.st0{fill:#030038;}
	.st1{fill:#FFFFFF;}
	.st2{fill:#1E12FF;}
</style>
<g>
	<path class="st0" d="M0.6,60c0-33,27-60,60-60h405c33,0,60,27,60,60v405c0,33-27,60-60,60h-405c-33,0-60-27-60-60V60z"/>
</g>
<g>
	<g>
		<path class="st1" d="M32.5,374.4v-63h38.4v7.7H41v18.4h23.7v7.7H41v21.3h30.7v7.7L32.5,374.4L32.5,374.4z"/>
		<path class="st1" d="M76.1,374.4l15.4-22l-15-22.1h9.1l11.1,17.5l10.2-17.5h9.4l-14.5,21.4l15,22.7h-9.1L96.5,357l-11.3,17.4
			L76.1,374.4L76.1,374.4z"/>
		<path class="st1" d="M142.7,375.3c-5.2,0-9.5-1.1-13.1-3.2s-6.2-5-8-8.5c-1.8-3.5-2.7-7.4-2.7-11.6c0-4.1,0.9-7.9,2.5-11.3
			s4.1-6.2,7.4-8.2c3.2-2,7.1-3.1,11.7-3.1c3.7,0,6.9,0.7,9.8,2.2s5.1,3.6,6.8,6.3c1.6,2.8,2.5,6.1,2.5,10.1c0,0.6,0,1.3-0.1,2
			c0,0.7-0.1,1.5-0.3,2.3h-31.9c0.4,4.1,1.4,7.3,2.9,9.5c1.6,2.3,3.5,3.9,5.9,4.8c2.4,0.9,5,1.4,7.7,1.4c2,0,4.2-0.2,6.4-0.6
			s4.3-1.1,6.3-2l1.1,6.4c-1.7,0.8-3.8,1.5-6.2,2.3C148.8,374.9,145.9,375.3,142.7,375.3z M127.9,346.8h23.2c0-2.1-0.4-3.9-1.2-5.4
			s-2-2.7-3.5-3.5s-3.6-1.2-6.1-1.2c-3.6,0-6.4,0.9-8.3,2.7C130.1,341,128.7,343.5,127.9,346.8z"/>
		<path class="st1" d="M187.9,375.3c-5,0-9.1-1-12.5-3c-3.4-2-5.9-4.8-7.6-8.2c-1.7-3.4-2.6-7.2-2.6-11.5c0-4.4,0.8-8.3,2.5-11.8
			c1.7-3.5,4.2-6.3,7.7-8.3s7.9-3.1,13.2-3.1c2.3,0,4.5,0.2,6.5,0.7c2,0.5,3.9,1.1,5.5,1.9l-1.3,7.1c-1.6-0.8-3.4-1.4-5.2-1.8
			s-3.8-0.7-5.7-0.7c-4.9,0-8.6,1.4-11.1,4.1s-3.8,6.6-3.8,11.5c0,4.8,1.2,8.7,3.6,11.6c2.4,2.9,6.1,4.4,11.1,4.4c2,0,4-0.2,5.9-0.7
			s3.7-1.1,5.4-2l1.1,6.5c-1.2,0.8-3,1.6-5.3,2.3C192.9,374.9,190.5,375.3,187.9,375.3z"/>
		<path class="st1" d="M229.4,319.8h2.5l-19.3,54.6h-9l22.6-63h9l22.6,63h-9L229.4,319.8z M244.2,357.4h-27v-7.7h27V357.4z"/>
		<path class="st1" d="M276.4,375.3c-3.9,0-7.1-0.5-9.7-1.4s-4.4-1.8-5.4-2.5l1-7.8c1,0.8,2.6,1.8,5.1,2.9s5.3,1.6,8.7,1.6
			c2.9,0,5-0.5,6.5-1.4s2.3-2.3,2.3-4c0-1.5-0.5-2.8-1.5-3.7c-1-0.9-2.1-1.7-3.5-2.2c-1.4-0.5-2.6-1-3.8-1.3c-2-0.5-4.1-1.2-6.2-2
			c-2.1-0.8-4-2.1-5.4-3.7s-2.2-4-2.2-6.9c0-2.2,0.5-4.4,1.6-6.4c1.1-2,2.8-3.7,5.3-4.9c2.4-1.3,5.6-1.9,9.7-1.9
			c2.9,0,5.3,0.3,7.2,0.9c1.8,0.6,3.4,1.3,4.8,2l-1,7.4c-1.3-1.1-2.8-2-4.5-2.7s-3.8-1.1-6.3-1.1c-2.5,0-4.6,0.5-6.2,1.4
			c-1.6,0.9-2.4,2.5-2.4,4.5s0.9,3.5,2.5,4.4s4.3,1.8,7.7,2.9c1.1,0.3,2.3,0.7,3.8,1.3c1.4,0.6,2.8,1.3,4.2,2.3
			c1.3,1,2.5,2.2,3.3,3.8c0.9,1.5,1.3,3.5,1.3,5.8c0,2-0.5,3.9-1.4,6c-0.9,2-2.6,3.7-5,5.1C284.3,374.6,280.9,375.3,276.4,375.3z"/>
		<path class="st1" d="M313.6,375.3c-3.9,0-7.1-0.5-9.7-1.4s-4.4-1.8-5.4-2.5l1-7.8c1,0.8,2.7,1.8,5.1,2.9s5.3,1.6,8.7,1.6
			c2.8,0,5-0.5,6.5-1.4c1.5-1,2.3-2.3,2.3-4c0-1.5-0.5-2.8-1.5-3.7c-1-0.9-2.1-1.7-3.5-2.2c-1.4-0.5-2.7-1-3.8-1.3
			c-2-0.5-4.1-1.2-6.2-2c-2.1-0.8-4-2.1-5.4-3.7s-2.2-4-2.2-6.9c0-2.2,0.5-4.4,1.6-6.4c1.1-2,2.8-3.7,5.3-4.9
			c2.4-1.3,5.7-1.9,9.7-1.9c2.9,0,5.3,0.3,7.2,0.9c1.8,0.6,3.4,1.3,4.8,2l-1,7.4c-1.3-1.1-2.8-2-4.5-2.7s-3.8-1.1-6.3-1.1
			c-2.5,0-4.6,0.5-6.2,1.4c-1.6,0.9-2.4,2.5-2.4,4.5s0.8,3.5,2.5,4.4s4.3,1.8,7.7,2.9c1.1,0.3,2.3,0.7,3.8,1.3
			c1.4,0.6,2.8,1.3,4.2,2.3c1.3,1,2.5,2.2,3.3,3.8c0.9,1.5,1.3,3.5,1.3,5.8c0,2-0.5,3.9-1.4,6c-0.9,2-2.6,3.7-5,5.1
			C321.6,374.6,318.1,375.3,313.6,375.3z"/>
		<path class="st1" d="M338.3,320.4v-9h8.1v9H338.3z M338.3,374.4v-44.1h8.1v44.1H338.3z"/>
		<path class="st1" d="M369.9,375.3c-3.9,0-7.1-0.5-9.7-1.4s-4.4-1.8-5.4-2.5l1-7.8c1,0.8,2.7,1.8,5.1,2.9s5.3,1.6,8.7,1.6
			c2.8,0,5-0.5,6.5-1.4c1.5-1,2.3-2.3,2.3-4c0-1.5-0.5-2.8-1.5-3.7c-1-0.9-2.1-1.7-3.5-2.2c-1.4-0.5-2.7-1-3.8-1.3
			c-2-0.5-4.1-1.2-6.2-2c-2.1-0.8-4-2.1-5.4-3.7s-2.2-4-2.2-6.9c0-2.2,0.5-4.4,1.6-6.4c1.1-2,2.8-3.7,5.3-4.9
			c2.4-1.3,5.7-1.9,9.7-1.9c2.9,0,5.3,0.3,7.2,0.9c1.8,0.6,3.4,1.3,4.8,2l-1,7.4c-1.3-1.1-2.8-2-4.5-2.7s-3.8-1.1-6.3-1.1
			c-2.5,0-4.6,0.5-6.2,1.4c-1.6,0.9-2.4,2.5-2.4,4.5s0.8,3.5,2.5,4.4s4.3,1.8,7.7,2.9c1.1,0.3,2.3,0.7,3.8,1.3
			c1.4,0.6,2.8,1.3,4.2,2.3c1.3,1,2.5,2.2,3.3,3.8c0.9,1.5,1.3,3.5,1.3,5.8c0,2-0.5,3.9-1.4,6c-0.9,2-2.6,3.7-5,5.1
			C377.9,374.6,374.4,375.3,369.9,375.3z"/>
		<path class="st1" d="M409.8,375.3c-2.8,0-5-0.5-6.7-1.5s-2.9-2.3-3.7-3.9c-0.8-1.6-1.2-3.3-1.2-5.1v-28.2h-7.5l0.7-6.3h6.8v-10.9
			l8.1-0.8v11.7H418v6.3h-11.6v23.2c0,2.8,0.2,4.9,0.5,6.1c0.3,1.3,1.2,2,2.5,2.4s3.4,0.5,6.3,0.5h2.1l-0.6,6.5L409.8,375.3
			L409.8,375.3z"/>
		<path class="st1" d="M424,374.4v-9.5h9.7v9.5H424z"/>
		<path class="st1" d="M443.7,320.4v-9h8.1v9H443.7z M443.7,374.4v-44.1h8.1v44.1H443.7z"/>
		<path class="st1" d="M482,375.3c-4.6,0-8.5-1-11.8-3.1c-3.2-2-5.7-4.8-7.5-8.3c-1.7-3.5-2.6-7.3-2.6-11.6s0.9-8.1,2.6-11.6
			c1.7-3.5,4.2-6.2,7.5-8.3c3.2-2,7.2-3.1,11.8-3.1c4.6,0,8.5,1,11.8,3.1s5.8,4.8,7.5,8.3c1.7,3.5,2.6,7.3,2.6,11.6
			s-0.9,8.1-2.6,11.6c-1.7,3.5-4.2,6.2-7.5,8.3C490.5,374.2,486.6,375.3,482,375.3z M482,368.1c4.4,0,7.7-1.4,10.1-4.2
			c2.3-2.8,3.5-6.6,3.5-11.6s-1.2-8.8-3.5-11.6s-5.7-4.2-10.1-4.2c-4.3,0-7.7,1.4-10,4.2c-2.3,2.8-3.5,6.6-3.5,11.6
			s1.2,8.8,3.5,11.6C474.3,366.7,477.6,368.1,482,368.1z"/>
	</g>
	<g>
		<g>
			<g>
				<path class="st2" d="M258.7,297.9v-45.3h-66.8l-0.8-0.3c-0.5-0.2-12.3-4.5-16.5-14.5c-1.9-4.5-2-9.2-0.4-14.1
					c-3.7-5.3-11.4-18.1-8-29.4c1.7-5.8,6-10.2,12.6-13c0.7-4.4,2.8-12,8.5-16.5c2.8-2.3,6.2-3.5,10-3.6
					c4.7-10.5,16.4-24.3,35.4-20.1c4.5-5.9,16.3-17,39.2-14.2c21.4,2.6,29.8,10.4,33,15c13.2,0.6,35,7.8,41.7,31.5
					c10.4,5.9,25.2,21.8,18.1,47.7c-3.5,12.9-9.3,21.2-17.2,24.7c-4.6,2.1-9,2-12.2,1.4c-1.3,2.2-3.5,4.8-6.9,6.9
					c-6.5,4-15.3,4.7-26.1,2.1L258.7,297.9z M193.6,242.8h74.7v32.3l31.3-30l2.7,0.7c9.2,2.6,16.6,2.5,21.2-0.3
					c3.6-2.2,4.4-5.4,4.4-5.4l1.3-6.2l5.6,2.8c0.1,0.1,4.3,2,8.9-0.1c5-2.3,9-8.6,11.6-18.3c7.3-26.5-14.1-37-15-37.4l-2.1-1
					l-0.5-2.3c-6.2-26.8-34.4-26.3-35.6-26.3l-4,0.1l-0.8-3.5c-0.4-0.9-5-9.1-26.6-11.7c-23.5-2.8-31.6,12.3-31.7,12.4l-1.9,3.7
					l-3.9-1.3c-20.3-6.6-27.9,15.5-28.2,16.5l-1.3,3.9l-4.1-0.7c-2.6-0.4-4.7,0-6.4,1.3c-3.9,3.1-5.2,10.4-5.3,12.8l-0.2,3.3l-3.1,1
					c-5.2,1.7-8.2,4.2-9.3,7.6c-2.3,7.7,5.2,19.4,8,22.9l1.9,2.3l-1.2,2.7c-1.5,3.4-1.7,6.4-0.6,9.1
					C185.6,238.9,191.6,241.9,193.6,242.8z M297.4,147.9L297.4,147.9L297.4,147.9z"/>
			</g>
		</g>
		<g>
			<g>
				<path class="st2" d="M215.5,211.4c-21-9.2-22.1-34.3-19.7-46.3l9.5,1.9l-4.8-0.9l4.8,0.9c-0.2,1.1-5,27.2,14.1,35.5L215.5,211.4
					z"/>
			</g>
		</g>
		<g>
			<g>
				<path class="st2" d="M215.9,231.5c-2.8,0.3-5.3-1.8-5.4-4.6c-0.6-13,2.7-22.5,9.8-28.1c8.4-6.7,19.8-6,26.4-4.7
					c2.9,0.5,4.7,3.5,3.7,6.4l0,0c-0.8,2.3-3.1,3.6-5.5,3.2c-4.9-0.9-13.1-1.6-18.5,2.8c-4.5,3.6-6.6,10.4-6.1,20.1
					C220.3,229,218.4,231.2,215.9,231.5L215.9,231.5z"/>
			</g>
		</g>
		<g>
			<g>
				<path class="st2" d="M293.2,221.8c-3-16.9-0.2-29.9,8.4-38.7c14.7-15.1,40.5-11.5,41.6-11.3l-1.4,9.6c-0.2,0-22.1-3-33.3,8.5
					c-6.3,6.5-8.2,16.6-5.8,30.2L293.2,221.8z"/>
			</g>
		</g>
		<g>
			<g>
				<path class="st2" d="M295.2,226.9c-0.4,0-0.8,0-1.2,0c-7.7-0.4-14.6-4.5-20.2-11.9c-1.8-2.4-1.1-5.7,1.4-7.1l0,0
					c2.1-1.2,4.8-0.7,6.3,1.3c3.8,5.2,8.1,7.9,12.9,8.1c8.8,0.4,17.2-6.5,21.8-11.3c1.8-1.8,4.6-1.9,6.6-0.3l0,0
					c2.2,1.8,2.3,5.1,0.4,7.1C317.2,218.8,307.1,226.9,295.2,226.9z"/>
			</g>
		</g>
		<g>
			<g>
				<path class="st2" d="M281.1,172.7L281.1,172.7c-2.9-0.6-4.6-3.4-3.8-6.1c6.7-23.4,23.6-24.8,24.4-24.9l0.3,4.8l0.4,4.8
					c-0.5,0-11,1.3-15.8,17.9C285.9,171.6,283.5,173.1,281.1,172.7z"/>
			</g>
		</g>
		<g>
			<g>
				<path class="st2" d="M261.3,179.7c-6.4-23-27.5-28.5-27.7-28.5l2.3-9.4c1.2,0.3,26.9,6.9,34.8,35.3c0.8,2.8-1,5.6-3.8,6.1l0,0
					C264.4,183.7,262,182.2,261.3,179.7z"/>
			</g>
		</g>
		<g>
			<g>
				<path class="st2" d="M268.2,248.7l-9.5-2.2l4.7,1.1l-4.7-1.1c0.6-2.6,1.2-10.3-2.7-14.4c-2.4-2.6-6.5-3.7-12-3.4
					c-2.5,0.1-4.6-1.7-5-4.1l0,0c-0.5-2.9,1.7-5.5,4.6-5.6c8.6-0.4,15.1,1.7,19.6,6.5C271.4,234.3,268.4,248.2,268.2,248.7z"/>
			</g>
		</g>
		<g>
			<g>
				<path class="st2" d="M192.3,233.5c-10.4-1.8-15.8-6.9-16.1-7.2l6.7-7c0.2,0.2,3.7,3.4,10.9,4.6c2.4,0.4,4.2,2.5,4.1,5l0,0
					C197.8,231.8,195.2,234,192.3,233.5z"/>
			</g>
		</g>
	</g>
	
		<image style="overflow:visible;enable-background:new    ;" width="275" height="246" xlink:href="9BEE06DE.png"  transform="matrix(0.9959 0 0 0.9959 129.0497 89.7368)">
	</image>
</g>
</svg>
